# MagicaVoxel @ Ephtracy

# group
o 

# material
mtllib bottles.mtl
usemtl palette

# normals
vn -1 0 0
vn 1 0 0
vn 0 0 1
vn 0 0 -1
vn 0 -1 0
vn 0 1 0

# texcoords
vt 0.638672 0.5
vt 0.748047 0.5
vt 0.763672 0.5
vt 0.826172 0.5
vt 0.833984 0.5
vt 0.857422 0.5
vt 0.884766 0.5
vt 0.927734 0.5

# verts
v -0.7 0 0.1
v -0.7 0 -0.2
v -0.7 0.2 0.1
v -0.7 0.2 0
v -0.7 0.5 0.1
v -0.7 0.5 0
v -0.7 0.6 0.1
v -0.7 0.6 -0.2
v -0.6 0.6 0
v -0.6 0.6 -0.1
v -0.6 0.8 0
v -0.6 0.8 -0.1
v -0.6 0.9 0
v -0.6 0.9 -0.1
v -0.6 1 0
v -0.6 1 -0.1
v -0.6 1.1 0
v -0.6 1.1 -0.1
v -0.5 0.1 0
v -0.5 0.1 -0.1
v -0.5 0.2 0
v -0.5 0.2 -0.1
v -0.2 0 0.2
v -0.2 0 -0.1
v -0.2 0.1 0.2
v -0.2 0.1 0.1
v -0.2 0.2 0.2
v -0.2 0.2 0.1
v -0.2 0.5 0.2
v -0.2 0.5 0.1
v -0.2 0.6 0.2
v -0.2 0.6 0.1
v -0.2 0.7 0.2
v -0.2 0.7 -0.1
v -0.1 0.7 0.1
v -0.1 0.7 0
v -0.1 0.9 0.1
v -0.1 0.9 0
v -0.1 1 0.1
v -0.1 1 0
v -0.1 1.2 0.1
v -0.1 1.2 0
v -0.1 1.3 0.1
v -0.1 1.3 0
v -0.1 1.4 0.1
v -0.1 1.4 0
v 0.5 0 0
v 0.5 0 -0.3
v 0.5 0.1 0
v 0.5 0.1 -0.1
v 0.5 0.2 0
v 0.5 0.2 -0.1
v 0.5 0.3 0
v 0.5 0.3 -0.1
v 0.5 0.4 0
v 0.5 0.4 -0.3
v 0.6 0.4 -0.1
v 0.6 0.4 -0.2
v 0.6 0.5 -0.1
v 0.6 0.5 -0.2
v 0.6 0.6 -0.1
v 0.6 0.6 -0.2
v -0.6 0.1 0
v -0.6 0.1 -0.1
v -0.6 0.2 0
v -0.6 0.2 -0.1
v -0.5 0.6 0
v -0.5 0.6 -0.1
v -0.5 0.8 0
v -0.5 0.8 -0.1
v -0.5 0.9 0
v -0.5 0.9 -0.1
v -0.5 1 0
v -0.5 1 -0.1
v -0.5 1.1 0
v -0.5 1.1 -0.1
v -0.4 0 0.1
v -0.4 0 -0.2
v -0.4 0.2 0.1
v -0.4 0.2 0
v -0.4 0.5 0.1
v -0.4 0.5 0
v -0.4 0.6 0.1
v -0.4 0.6 -0.2
v 0.1 0.7 0.1
v 0.1 0.7 0
v 0.1 0.9 0.1
v 0.1 0.9 0
v 0.1 1 0.1
v 0.1 1 0
v 0.1 1.2 0.1
v 0.1 1.2 0
v 0.1 1.3 0.1
v 0.1 1.3 0
v 0.1 1.4 0.1
v 0.1 1.4 0
v 0.2 0 0.2
v 0.2 0 -0.1
v 0.2 0.1 0.2
v 0.2 0.1 0.1
v 0.2 0.2 0.2
v 0.2 0.2 0.1
v 0.2 0.5 0.2
v 0.2 0.5 0.1
v 0.2 0.6 0.2
v 0.2 0.6 0.1
v 0.2 0.7 0.2
v 0.2 0.7 -0.1
v 0.7 0.4 -0.1
v 0.7 0.4 -0.2
v 0.7 0.5 -0.1
v 0.7 0.5 -0.2
v 0.7 0.6 -0.1
v 0.7 0.6 -0.2
v 0.8 0 0
v 0.8 0 -0.3
v 0.8 0.1 0
v 0.8 0.1 -0.1
v 0.8 0.2 0
v 0.8 0.2 -0.1
v 0.8 0.3 0
v 0.8 0.3 -0.1
v 0.8 0.4 0
v 0.8 0.4 -0.3
v -0.2 0 0.2
v -0.2 0.1 0.2
v -0.2 0.2 0.2
v -0.2 0.5 0.2
v -0.2 0.6 0.2
v -0.2 0.7 0.2
v -0.1 0.1 0.2
v -0.1 0.2 0.2
v -0.1 0.3 0.2
v -0.1 0.5 0.2
v -0.1 0.6 0.2
v 0.1 0.1 0.2
v 0.1 0.2 0.2
v 0.1 0.3 0.2
v 0.1 0.5 0.2
v 0.1 0.6 0.2
v 0.2 0 0.2
v 0.2 0.1 0.2
v 0.2 0.2 0.2
v 0.2 0.5 0.2
v 0.2 0.6 0.2
v 0.2 0.7 0.2
v -0.7 0 0.1
v -0.7 0.2 0.1
v -0.7 0.5 0.1
v -0.7 0.6 0.1
v -0.6 0.2 0.1
v -0.6 0.5 0.1
v -0.5 0.2 0.1
v -0.5 0.5 0.1
v -0.4 0 0.1
v -0.4 0.2 0.1
v -0.4 0.5 0.1
v -0.4 0.6 0.1
v -0.1 0.7 0.1
v -0.1 0.9 0.1
v -0.1 1 0.1
v -0.1 1.2 0.1
v -0.1 1.3 0.1
v -0.1 1.4 0.1
v 0.1 0.7 0.1
v 0.1 0.9 0.1
v 0.1 1 0.1
v 0.1 1.2 0.1
v 0.1 1.3 0.1
v 0.1 1.4 0.1
v -0.6 0.6 0
v -0.6 0.8 0
v -0.6 0.9 0
v -0.6 1 0
v -0.6 1.1 0
v -0.5 0.6 0
v -0.5 0.8 0
v -0.5 0.9 0
v -0.5 1 0
v -0.5 1.1 0
v 0.5 0 0
v 0.5 0.1 0
v 0.5 0.2 0
v 0.5 0.3 0
v 0.5 0.4 0
v 0.6 0.2 0
v 0.6 0.3 0
v 0.7 0.2 0
v 0.7 0.3 0
v 0.8 0 0
v 0.8 0.1 0
v 0.8 0.2 0
v 0.8 0.3 0
v 0.8 0.4 0
v -0.6 0.1 -0.1
v -0.6 0.2 -0.1
v -0.5 0.1 -0.1
v -0.5 0.2 -0.1
v 0.6 0.4 -0.1
v 0.6 0.5 -0.1
v 0.6 0.6 -0.1
v 0.7 0.4 -0.1
v 0.7 0.5 -0.1
v 0.7 0.6 -0.1
v -0.6 0.1 0
v -0.6 0.2 0
v -0.5 0.1 0
v -0.5 0.2 0
v -0.1 0.7 0
v -0.1 0.9 0
v -0.1 1 0
v -0.1 1.2 0
v -0.1 1.3 0
v -0.1 1.4 0
v 0.1 0.7 0
v 0.1 0.9 0
v 0.1 1 0
v 0.1 1.2 0
v 0.1 1.3 0
v 0.1 1.4 0
v -0.6 0.6 -0.1
v -0.6 0.8 -0.1
v -0.6 0.9 -0.1
v -0.6 1 -0.1
v -0.6 1.1 -0.1
v -0.5 0.6 -0.1
v -0.5 0.8 -0.1
v -0.5 0.9 -0.1
v -0.5 1 -0.1
v -0.5 1.1 -0.1
v -0.2 0 -0.1
v -0.2 0.7 -0.1
v 0.2 0 -0.1
v 0.2 0.7 -0.1
v -0.7 0 -0.2
v -0.7 0.6 -0.2
v -0.6 0.2 -0.2
v -0.6 0.5 -0.2
v -0.5 0.2 -0.2
v -0.5 0.5 -0.2
v -0.4 0 -0.2
v -0.4 0.6 -0.2
v 0.6 0.4 -0.2
v 0.6 0.5 -0.2
v 0.6 0.6 -0.2
v 0.7 0.4 -0.2
v 0.7 0.5 -0.2
v 0.7 0.6 -0.2
v 0.5 0 -0.3
v 0.5 0.4 -0.3
v 0.6 0.1 -0.3
v 0.6 0.3 -0.3
v 0.7 0.1 -0.3
v 0.7 0.3 -0.3
v 0.8 0 -0.3
v 0.8 0.4 -0.3
v -0.2 0 0.2
v 0.2 0 0.2
v -0.7 0 0.1
v -0.4 0 0.1
v 0.5 0 0
v 0.8 0 0
v -0.2 0 -0.1
v 0.2 0 -0.1
v -0.7 0 -0.2
v -0.4 0 -0.2
v 0.5 0 -0.3
v 0.8 0 -0.3
v -0.6 0.2 0
v -0.5 0.2 0
v -0.6 0.2 -0.1
v -0.5 0.2 -0.1
v -0.6 0.1 0
v -0.5 0.1 0
v -0.6 0.1 -0.1
v -0.5 0.1 -0.1
v 0.5 0.4 0
v 0.8 0.4 0
v 0.6 0.4 -0.1
v 0.7 0.4 -0.1
v 0.6 0.4 -0.2
v 0.7 0.4 -0.2
v 0.5 0.4 -0.3
v 0.8 0.4 -0.3
v -0.7 0.6 0.1
v -0.4 0.6 0.1
v -0.6 0.6 0
v -0.5 0.6 0
v -0.6 0.6 -0.1
v -0.5 0.6 -0.1
v 0.6 0.6 -0.1
v 0.7 0.6 -0.1
v -0.7 0.6 -0.2
v -0.4 0.6 -0.2
v 0.6 0.6 -0.2
v 0.7 0.6 -0.2
v -0.2 0.7 0.2
v 0.2 0.7 0.2
v -0.1 0.7 0.1
v 0.1 0.7 0.1
v -0.1 0.7 0
v 0.1 0.7 0
v -0.2 0.7 -0.1
v 0.2 0.7 -0.1
v -0.6 1.1 0
v -0.5 1.1 0
v -0.6 1.1 -0.1
v -0.5 1.1 -0.1
v -0.1 1.4 0.1
v 0.1 1.4 0.1
v -0.1 1.4 0
v 0.1 1.4 0

# faces
f 3/1/1 2/1/1 1/1/1
f 4/1/1 2/1/1 3/1/1
f 5/5/1 4/5/1 3/5/1
f 6/1/1 2/1/1 4/1/1
f 6/5/1 4/5/1 5/5/1
f 7/1/1 6/1/1 5/1/1
f 8/1/1 2/1/1 6/1/1
f 8/1/1 6/1/1 7/1/1
f 11/1/1 10/1/1 9/1/1
f 12/1/1 10/1/1 11/1/1
f 13/6/1 12/6/1 11/6/1
f 14/6/1 12/6/1 13/6/1
f 15/7/1 14/7/1 13/7/1
f 16/7/1 14/7/1 15/7/1
f 17/8/1 16/8/1 15/8/1
f 18/8/1 16/8/1 17/8/1
f 21/1/1 20/1/1 19/1/1
f 22/1/1 20/1/1 21/1/1
f 25/1/1 24/1/1 23/1/1
f 26/1/1 24/1/1 25/1/1
f 27/4/1 26/4/1 25/4/1
f 28/1/1 24/1/1 26/1/1
f 28/4/1 26/4/1 27/4/1
f 29/3/1 28/3/1 27/3/1
f 30/1/1 24/1/1 28/1/1
f 30/3/1 28/3/1 29/3/1
f 31/4/1 30/4/1 29/4/1
f 32/1/1 24/1/1 30/1/1
f 32/4/1 30/4/1 31/4/1
f 33/1/1 32/1/1 31/1/1
f 34/1/1 24/1/1 32/1/1
f 34/1/1 32/1/1 33/1/1
f 37/1/1 36/1/1 35/1/1
f 38/1/1 36/1/1 37/1/1
f 39/6/1 38/6/1 37/6/1
f 40/6/1 38/6/1 39/6/1
f 41/1/1 40/1/1 39/1/1
f 42/1/1 40/1/1 41/1/1
f 43/7/1 42/7/1 41/7/1
f 44/7/1 42/7/1 43/7/1
f 45/8/1 44/8/1 43/8/1
f 46/8/1 44/8/1 45/8/1
f 49/1/1 48/1/1 47/1/1
f 50/1/1 48/1/1 49/1/1
f 51/5/1 50/5/1 49/5/1
f 52/1/1 48/1/1 50/1/1
f 52/5/1 50/5/1 51/5/1
f 53/3/1 52/3/1 51/3/1
f 54/1/1 48/1/1 52/1/1
f 54/3/1 52/3/1 53/3/1
f 55/1/1 54/1/1 53/1/1
f 56/1/1 48/1/1 54/1/1
f 56/1/1 54/1/1 55/1/1
f 59/1/1 58/1/1 57/1/1
f 60/1/1 58/1/1 59/1/1
f 61/8/1 60/8/1 59/8/1
f 62/8/1 60/8/1 61/8/1
f 63/1/2 64/1/2 65/1/2
f 65/1/2 64/1/2 66/1/2
f 67/1/2 68/1/2 69/1/2
f 69/1/2 68/1/2 70/1/2
f 69/6/2 70/6/2 71/6/2
f 71/6/2 70/6/2 72/6/2
f 71/7/2 72/7/2 73/7/2
f 73/7/2 72/7/2 74/7/2
f 73/8/2 74/8/2 75/8/2
f 75/8/2 74/8/2 76/8/2
f 77/1/2 78/1/2 79/1/2
f 79/1/2 78/1/2 80/1/2
f 79/5/2 80/5/2 81/5/2
f 80/1/2 78/1/2 82/1/2
f 81/5/2 80/5/2 82/5/2
f 81/1/2 82/1/2 83/1/2
f 82/1/2 78/1/2 84/1/2
f 83/1/2 82/1/2 84/1/2
f 85/1/2 86/1/2 87/1/2
f 87/1/2 86/1/2 88/1/2
f 87/6/2 88/6/2 89/6/2
f 89/6/2 88/6/2 90/6/2
f 89/1/2 90/1/2 91/1/2
f 91/1/2 90/1/2 92/1/2
f 91/7/2 92/7/2 93/7/2
f 93/7/2 92/7/2 94/7/2
f 93/8/2 94/8/2 95/8/2
f 95/8/2 94/8/2 96/8/2
f 97/1/2 98/1/2 99/1/2
f 99/1/2 98/1/2 100/1/2
f 99/4/2 100/4/2 101/4/2
f 100/1/2 98/1/2 102/1/2
f 101/4/2 100/4/2 102/4/2
f 101/3/2 102/3/2 103/3/2
f 102/1/2 98/1/2 104/1/2
f 103/3/2 102/3/2 104/3/2
f 103/4/2 104/4/2 105/4/2
f 104/1/2 98/1/2 106/1/2
f 105/4/2 104/4/2 106/4/2
f 105/1/2 106/1/2 107/1/2
f 106/1/2 98/1/2 108/1/2
f 107/1/2 106/1/2 108/1/2
f 109/1/2 110/1/2 111/1/2
f 111/1/2 110/1/2 112/1/2
f 111/8/2 112/8/2 113/8/2
f 113/8/2 112/8/2 114/8/2
f 115/1/2 116/1/2 117/1/2
f 117/1/2 116/1/2 118/1/2
f 117/5/2 118/5/2 119/5/2
f 118/1/2 116/1/2 120/1/2
f 119/5/2 118/5/2 120/5/2
f 119/3/2 120/3/2 121/3/2
f 120/1/2 116/1/2 122/1/2
f 121/3/2 120/3/2 122/3/2
f 121/1/2 122/1/2 123/1/2
f 122/1/2 116/1/2 124/1/2
f 123/1/2 122/1/2 124/1/2
f 131/1/3 126/1/3 125/1/3
f 131/4/3 127/4/3 126/4/3
f 132/3/3 128/3/3 127/3/3
f 132/4/3 127/4/3 131/4/3
f 133/3/3 128/3/3 132/3/3
f 134/4/3 129/4/3 128/4/3
f 134/3/3 128/3/3 133/3/3
f 135/1/3 130/1/3 129/1/3
f 135/4/3 129/4/3 134/4/3
f 136/6/3 133/6/3 132/6/3
f 136/1/3 131/1/3 125/1/3
f 136/6/3 132/6/3 131/6/3
f 137/6/3 133/6/3 136/6/3
f 138/5/3 134/5/3 133/5/3
f 138/6/3 133/6/3 137/6/3
f 139/6/3 135/6/3 134/6/3
f 139/5/3 134/5/3 138/5/3
f 140/1/3 130/1/3 135/1/3
f 140/6/3 135/6/3 139/6/3
f 141/1/3 136/1/3 125/1/3
f 142/4/3 137/4/3 136/4/3
f 142/1/3 136/1/3 141/1/3
f 143/3/3 139/3/3 138/3/3
f 143/4/3 137/4/3 142/4/3
f 143/3/3 138/3/3 137/3/3
f 144/4/3 140/4/3 139/4/3
f 144/3/3 139/3/3 143/3/3
f 145/1/3 130/1/3 140/1/3
f 145/4/3 140/4/3 144/4/3
f 146/1/3 130/1/3 145/1/3
f 151/1/3 148/1/3 147/1/3
f 151/5/3 149/5/3 148/5/3
f 152/1/3 150/1/3 149/1/3
f 152/5/3 149/5/3 151/5/3
f 153/1/3 151/1/3 147/1/3
f 153/7/3 152/7/3 151/7/3
f 154/1/3 150/1/3 152/1/3
f 154/7/3 152/7/3 153/7/3
f 155/1/3 153/1/3 147/1/3
f 156/5/3 154/5/3 153/5/3
f 156/1/3 153/1/3 155/1/3
f 157/1/3 150/1/3 154/1/3
f 157/5/3 154/5/3 156/5/3
f 158/1/3 150/1/3 157/1/3
f 165/1/3 160/1/3 159/1/3
f 166/6/3 161/6/3 160/6/3
f 166/1/3 160/1/3 165/1/3
f 167/1/3 162/1/3 161/1/3
f 167/6/3 161/6/3 166/6/3
f 168/7/3 163/7/3 162/7/3
f 168/1/3 162/1/3 167/1/3
f 169/8/3 164/8/3 163/8/3
f 169/7/3 163/7/3 168/7/3
f 170/8/3 164/8/3 169/8/3
f 176/1/3 172/1/3 171/1/3
f 177/6/3 173/6/3 172/6/3
f 177/1/3 172/1/3 176/1/3
f 178/7/3 174/7/3 173/7/3
f 178/6/3 173/6/3 177/6/3
f 179/8/3 175/8/3 174/8/3
f 179/7/3 174/7/3 178/7/3
f 180/8/3 175/8/3 179/8/3
f 186/5/3 183/5/3 182/5/3
f 186/3/3 184/3/3 183/3/3
f 187/1/3 185/1/3 184/1/3
f 187/3/3 184/3/3 186/3/3
f 188/5/3 186/5/3 182/5/3
f 188/6/3 187/6/3 186/6/3
f 189/1/3 185/1/3 187/1/3
f 189/6/3 187/6/3 188/6/3
f 190/1/3 182/1/3 181/1/3
f 191/5/3 188/5/3 182/5/3
f 191/1/3 182/1/3 190/1/3
f 192/3/3 189/3/3 188/3/3
f 192/5/3 188/5/3 191/5/3
f 193/1/3 185/1/3 189/1/3
f 193/3/3 189/3/3 192/3/3
f 194/1/3 185/1/3 193/1/3
f 197/1/3 196/1/3 195/1/3
f 198/1/3 196/1/3 197/1/3
f 202/1/3 200/1/3 199/1/3
f 203/8/3 201/8/3 200/8/3
f 203/1/3 200/1/3 202/1/3
f 204/8/3 201/8/3 203/8/3
f 205/1/4 206/1/4 207/1/4
f 207/1/4 206/1/4 208/1/4
f 209/1/4 210/1/4 215/1/4
f 210/6/4 211/6/4 216/6/4
f 215/1/4 210/1/4 216/1/4
f 211/1/4 212/1/4 217/1/4
f 216/6/4 211/6/4 217/6/4
f 212/7/4 213/7/4 218/7/4
f 217/1/4 212/1/4 218/1/4
f 213/8/4 214/8/4 219/8/4
f 218/7/4 213/7/4 219/7/4
f 219/8/4 214/8/4 220/8/4
f 221/1/4 222/1/4 226/1/4
f 222/6/4 223/6/4 227/6/4
f 226/1/4 222/1/4 227/1/4
f 223/7/4 224/7/4 228/7/4
f 227/6/4 223/6/4 228/6/4
f 224/8/4 225/8/4 229/8/4
f 228/7/4 224/7/4 229/7/4
f 229/8/4 225/8/4 230/8/4
f 231/1/4 232/1/4 233/1/4
f 233/1/4 232/1/4 234/1/4
f 235/1/4 236/1/4 237/1/4
f 237/1/4 236/1/4 238/1/4
f 235/1/4 237/1/4 239/1/4
f 237/5/4 238/5/4 239/5/4
f 238/1/4 236/1/4 240/1/4
f 239/5/4 238/5/4 240/5/4
f 235/1/4 239/1/4 241/1/4
f 239/1/4 240/1/4 241/1/4
f 240/1/4 236/1/4 242/1/4
f 241/1/4 240/1/4 242/1/4
f 243/1/4 244/1/4 246/1/4
f 244/8/4 245/8/4 247/8/4
f 246/1/4 244/1/4 247/1/4
f 247/8/4 245/8/4 248/8/4
f 249/1/4 250/1/4 251/1/4
f 251/1/4 250/1/4 252/1/4
f 249/1/4 251/1/4 253/1/4
f 251/5/4 252/5/4 253/5/4
f 252/1/4 250/1/4 254/1/4
f 253/5/4 252/5/4 254/5/4
f 249/1/4 253/1/4 255/1/4
f 253/1/4 254/1/4 255/1/4
f 254/1/4 250/1/4 256/1/4
f 255/1/4 254/1/4 256/1/4
f 263/1/5 258/1/5 257/1/5
f 264/1/5 258/1/5 263/1/5
f 265/1/5 260/1/5 259/1/5
f 266/1/5 260/1/5 265/1/5
f 267/1/5 262/1/5 261/1/5
f 268/1/5 262/1/5 267/1/5
f 271/2/5 270/2/5 269/2/5
f 272/2/5 270/2/5 271/2/5
f 273/1/6 274/1/6 275/1/6
f 275/1/6 274/1/6 276/1/6
f 277/1/6 278/1/6 279/1/6
f 279/1/6 278/1/6 280/1/6
f 277/1/6 279/1/6 281/1/6
f 280/1/6 278/1/6 282/1/6
f 277/1/6 281/1/6 283/1/6
f 281/1/6 282/1/6 283/1/6
f 282/1/6 278/1/6 284/1/6
f 283/1/6 282/1/6 284/1/6
f 285/1/6 286/1/6 287/1/6
f 287/1/6 286/1/6 288/1/6
f 285/1/6 287/1/6 289/1/6
f 288/1/6 286/1/6 290/1/6
f 285/1/6 289/1/6 293/1/6
f 289/1/6 290/1/6 293/1/6
f 290/1/6 286/1/6 294/1/6
f 293/1/6 290/1/6 294/1/6
f 291/8/6 292/8/6 295/8/6
f 295/8/6 292/8/6 296/8/6
f 297/1/6 298/1/6 299/1/6
f 299/1/6 298/1/6 300/1/6
f 297/1/6 299/1/6 301/1/6
f 300/1/6 298/1/6 302/1/6
f 297/1/6 301/1/6 303/1/6
f 301/1/6 302/1/6 303/1/6
f 302/1/6 298/1/6 304/1/6
f 303/1/6 302/1/6 304/1/6
f 305/8/6 306/8/6 307/8/6
f 307/8/6 306/8/6 308/8/6
f 309/8/6 310/8/6 311/8/6
f 311/8/6 310/8/6 312/8/6
